<?xml version="1.0" encoding="utf-8"?>
<!-- Generator: Adobe Illustrator 19.0.0, SVG Export Plug-In . SVG Version: 6.00 Build 0)  -->
<svg version="1.1" id="Layer_1" xmlns="http://www.w3.org/2000/svg" xmlns:xlink="http://www.w3.org/1999/xlink" x="0px" y="0px"
	 viewBox="-15.1 225.1 436.1 390.7" style="enable-background:new -15.1 225.1 436.1 390.7;" xml:space="preserve">
<style type="text/css">
	.st0{fill:#010101;}
</style>
<path class="st0" d="M203,281.4c-9.1-35.3-55.2-56.3-90.9-56.3c-70.2,0-127.2,54.5-127.2,127.2c0,136.3,129.6,172.6,199.9,254.4
	c0.6,0.9,1.4,1.6,2.2,2.5c8.9,8.8,23.3,8.8,32.2,0c0.8-0.8,1.4-1.5,2-2.5c70.4-81.9,199.9-117.6,199.9-254.4
	c0-72.7-57-127.2-127.2-127.2C258.2,225.1,212.1,246.1,203,281.4z M299.8,306.8c-8.5-1.5-15-9-15-17.9c0-10,8.2-18.4,18.2-18.4
	c14.4,0,32,10.3,46.7,24.8c15,14.9,26,34.8,26,47.9c0,10-8.2,18.2-18.2,18.2c-8.9,0-16.4-6.4-17.9-15
	C335,328.1,319.4,311.4,299.8,306.8z"/>
</svg>
