<?xml version="1.0" encoding="utf-8"?>
<!-- Generator: Adobe Illustrator 19.0.0, SVG Export Plug-In . SVG Version: 6.00 Build 0)  -->
<svg version="1.1" id="Capa_1" xmlns="http://www.w3.org/2000/svg" xmlns:xlink="http://www.w3.org/1999/xlink" x="0px" y="0px"
	 viewBox="-269 402.3 56.5 36.6" style="enable-background:new -269 402.3 56.5 36.6;" xml:space="preserve">
<g>
	<path d="M-253.9,418.2c-1.1,0-1.9,0.3-1.9,0.3l-0.2,1.3c0,0,0.7-0.3,1.7-0.3c0.6,0,1,0.1,1,0.5c0,0.3-0.1,0.4-0.1,0.4s-0.5,0-0.7,0
		c-1.3,0-2.7,0.6-2.7,2.3c0,1.4,0.9,1.7,1.5,1.7c1.1,0,1.6-0.7,1.6-0.7l-0.1,0.6h1.4l0.6-4.3C-251.8,418.3-253.4,418.2-253.9,418.2z
		 M-254.7,423.2c-0.5,0-0.6-0.4-0.6-0.6c0-0.4,0.2-0.9,1.4-0.9c0.3,0,0.3,0,0.3,0C-253.6,421.9-253.8,423.2-254.7,423.2z
		 M-249.9,420.2c0,0.8,1.8,0.4,1.8,2.3c0,2.1-2,2-2.3,2c-1.3,0-1.7-0.2-1.7-0.2l0.2-1.4c0,0,0.6,0.2,1.4,0.2c0.4,0,1,0,1-0.5
		c0-0.7-1.9-0.6-1.9-2.3c0-1.6,1.2-2,2.3-2c0.9,0,1.4,0.1,1.4,0.1l-0.2,1.4c0,0-0.8-0.1-1.1-0.1
		C-249.6,419.6-249.9,419.8-249.9,420.2z M-246.2,422.5c0,0.2,0,0.5,0.6,0.5c0.1,0,0.3,0,0.4,0l-0.2,1.3c-0.2,0-0.6,0.2-1.2,0.2
		c-0.7,0-1.2-0.4-1.2-1.3c0-0.6,0.9-5.7,0.9-5.7h1.5l-0.2,0.9h0.8l-0.2,1.5h-0.8L-246.2,422.5z M-240.3,421.9c0,0,0.2-1,0.2-1.4
		c0-1-0.5-2.3-2.2-2.3c-1.6,0-2.7,1.7-2.7,3.6c0,2.2,1.4,2.7,2.7,2.7c1.1,0,1.6-0.3,1.6-0.3l0.3-1.5c0,0-0.9,0.4-1.6,0.4
		c-1.7,0-1.4-1.2-1.4-1.2S-240.3,421.9-240.3,421.9z M-242.3,419.6c0.9,0,0.7,1,0.7,1.1h-1.7C-243.3,420.5-243.1,419.6-242.3,419.6z
		 M-256.3,417l-1.2,7.3h-1.6l0.9-5.5l-2,5.5h-1.1l-0.1-5.5l-0.9,5.5h-1.5l1.2-7.3h2.3l0.1,4.5l1.5-4.5H-256.3z M-236.7,416h-8
		c0.1-0.1,0.4-0.8,0.8-1.6h6.6C-237.1,415-236.9,415.5-236.7,416z M-238.2,412.9h-4.9c0.3-0.5,0.7-1.1,1-1.6h2.8
		C-238.9,411.9-238.5,412.4-238.2,412.9z M-240.8,431.4c-0.5-0.5-1-1-1.5-1.6h3C-239.7,430.4-240.2,430.9-240.8,431.4L-240.8,431.4
		C-240.7,431.4-240.7,431.4-240.8,431.4C-240.7,431.4-240.8,431.4-240.8,431.4z M-238.2,428.3h-5.1c-0.3-0.5-0.6-1-0.9-1.6h6.8
		C-237.6,427.3-237.9,427.8-238.2,428.3z M-236.3,418.3c-0.2,0.4-0.4,0.8-0.6,1.8c-1.1-0.4-1.2,1.7-1.6,4.3h-1.6l1-6h1.4l-0.1,0.9
		c0,0,0.5-0.9,1.2-0.9C-236.4,418.3-236.3,418.3-236.3,418.3z M-233.5,423c0.5,0,1.3-0.4,1.3-0.4l-0.3,1.7c0,0-0.8,0.2-1.3,0.2
		c-1.8,0-2.8-1.3-2.8-3.2c0-2.9,1.7-4.4,3.5-4.4c0.8,0,1.7,0.4,1.7,0.4l-0.3,1.6c0,0-0.6-0.4-1.4-0.4c-1,0-2,1-2,2.8
		C-235,422.1-234.6,423-233.5,423z M-218.4,423.5c-0.1,0-0.1,0.1-0.2,0.2c0,0.1-0.1,0.2-0.1,0.2s0,0.2,0.1,0.2
		c0,0.1,0.1,0.1,0.2,0.2c0.1,0,0.2,0.1,0.2,0.1c0.1,0,0.2,0,0.2-0.1c0.1,0,0.1-0.1,0.2-0.2c0-0.1,0.1-0.2,0.1-0.2
		c0-0.1,0-0.2-0.1-0.2c0-0.1-0.1-0.1-0.2-0.2c-0.1,0-0.1-0.1-0.2-0.1C-218.3,423.4-218.4,423.5-218.4,423.5z M-217.9,423.7
		c0,0.1,0.1,0.1,0.1,0.2c0,0.1,0,0.1-0.1,0.2c0,0.1-0.1,0.1-0.1,0.1c-0.1,0-0.1,0.1-0.2,0.1c-0.1,0-0.1,0-0.2-0.1
		c-0.1,0-0.1-0.1-0.1-0.1c0-0.1-0.1-0.1-0.1-0.2c0-0.1,0-0.1,0.1-0.2c0-0.1,0.1-0.1,0.1-0.1c0.1,0,0.1,0,0.2,0s0.1,0,0.2,0
		C-217.9,423.6-217.9,423.6-217.9,423.7z M-224.1,421.9c0,1.3,0.6,2.5,1.9,2.5c0.9,0,1.4-0.6,1.4-0.6l-0.1,0.6h1.5l1.2-7.3l-1.5,0
		l-0.3,2.1c0,0-0.6-0.8-1.5-0.8C-222.9,418.3-224.1,420-224.1,421.9z M-220.4,421c0,0.8-0.4,1.9-1.2,1.9c-0.6,0-0.8-0.5-0.8-1.2
		c0-1.2,0.5-2,1.2-2C-220.7,419.7-220.4,420.1-220.4,421z M-217.9,428.8C-217.9,428.7-217.9,428.7-217.9,428.8
		C-217.9,428.7-217.9,428.7-217.9,428.8c0.1-0.1,0.1-0.1,0.1-0.2c0,0,0-0.1,0-0.1c0,0,0,0-0.1,0c0,0-0.1,0-0.1,0h-0.2v0.5l0,0h0.1
		v-0.2h0C-218,428.7-218,428.7-217.9,428.8c-0.1,0,0,0.1,0,0.1l0,0.1h0.1l-0.1-0.1C-217.9,428.8-217.9,428.8-217.9,428.8z
		 M-218,428.7h-0.1v-0.2h0.1c0,0,0.1,0,0.1,0c0,0,0,0,0,0c0,0,0,0,0,0C-217.9,428.6-217.9,428.6-218,428.7
		C-217.9,428.7-218,428.7-218,428.7z M-214,402.3h-53.6c-0.8,0-1.5,0.7-1.5,1.5v33.7c0,0.8,0.6,1.5,1.5,1.5h53.6
		c0.8,0,1.5-0.7,1.5-1.5v-33.7C-212.5,403-213.2,402.3-214,402.3z M-217.6,428.9c0,0.1-0.1,0.1-0.2,0.2c-0.1,0-0.2,0.1-0.2,0.1
		c-0.1,0-0.2,0-0.2-0.1c-0.1,0-0.1-0.1-0.2-0.2c0-0.1-0.1-0.2-0.1-0.2s0-0.2,0.1-0.2c0-0.1,0.1-0.1,0.2-0.2c0.1,0,0.2-0.1,0.2-0.1
		c0.1,0,0.2,0,0.2,0.1c0.1,0,0.1,0.1,0.2,0.2c0,0.1,0.1,0.2,0.1,0.2C-217.5,428.8-217.5,428.9-217.6,428.9z M-216.5,420.7
		c0,8-6.5,14.5-14.5,14.5c-3.7,0-7.2-1.4-9.7-3.7c-2.6,2.3-6,3.7-9.7,3.7c-8,0-14.5-6.5-14.5-14.5c0-8,6.4-14.4,14.4-14.5
		c0,0,0.1,0,0.1,0c3.7,0,7.1,1.4,9.7,3.7c2.6-2.3,6-3.7,9.7-3.7C-223,406.1-216.5,412.6-216.5,420.7
		C-216.5,420.6-216.5,420.6-216.5,420.7z M-218.4,423.7v0.5h0.1v-0.2h0c0,0,0.1,0,0.1,0c0,0,0,0.1,0.1,0.1l0,0.1h0.1l-0.1-0.1
		c0,0-0.1-0.1-0.1-0.1c0,0,0,0,0,0c0,0,0.1,0,0.1,0c0,0,0-0.1,0-0.1c0,0,0-0.1,0-0.1c0,0,0,0-0.1,0c0,0-0.1,0-0.1,0H-218.4
		L-218.4,423.7z M-218.1,423.8C-218.1,423.8-218.1,423.8-218.1,423.8C-218.1,423.8-218.1,423.8-218.1,423.8c0,0.1-0.1,0.1-0.1,0.1
		h-0.1v-0.2h0.1C-218.2,423.7-218.2,423.7-218.1,423.8C-218.1,423.7-218.1,423.7-218.1,423.8z M-228.9,418.2c-1.1,0-1.9,0.3-1.9,0.3
		l-0.2,1.3c0,0,0.7-0.3,1.7-0.3c0.6,0,1,0.1,1,0.5c0,0.3-0.1,0.4-0.1,0.4s-0.5,0-0.7,0c-1.3,0-2.7,0.6-2.7,2.3
		c0,1.4,0.9,1.7,1.5,1.7c1.1,0,1.6-0.7,1.6-0.7l-0.1,0.6h1.4l0.6-4.3C-226.8,418.3-228.4,418.2-228.9,418.2z M-229.7,423.2
		c-0.5,0-0.6-0.4-0.6-0.6c0-0.4,0.2-0.9,1.4-0.9c0.3,0,0.3,0,0.3,0C-228.6,421.9-228.8,423.2-229.7,423.2z M-224,420.1
		c-1.1-0.4-1.2,1.7-1.6,4.3h-1.6l1-6h1.4l-0.1,0.9c0,0,0.5-0.9,1.2-0.9c0.2,0,0.3,0,0.3,0C-223.6,418.7-223.8,419.1-224,420.1z"/>
</g>
</svg>
