<?xml version="1.0" encoding="utf-8"?>
<!-- Generator: Adobe Illustrator 19.0.0, SVG Export Plug-In . SVG Version: 6.00 Build 0)  -->
<svg version="1.1" id="Capa_1" xmlns="http://www.w3.org/2000/svg" xmlns:xlink="http://www.w3.org/1999/xlink" x="0px" y="0px"
	 viewBox="-273 412.1 48.4 17.1" style="enable-background:new -273 412.1 48.4 17.1;" xml:space="preserve">
<g>
	<g id="Layer_1_copy_13_">
		<path d="M-260.3,419.7c0-0.2,0-0.3-0.2-0.3c-0.5-0.1-1-0.2-1.5-0.2c-1-0.1-1.9,0.1-2.7,0.7c-1.3,0.9-1.8,2.2-1.8,3.7
			c0,0.7,0.3,1.4,1,1.7c0.7,0.3,1.4,0.2,2-0.3c0.3-0.2,0.5-0.5,0.8-0.8c0,0.3,0,0.6-0.1,0.9c0,0.2,0,0.3,0.2,0.2c0.4,0,0.7,0,1.1,0
			c0.2,0,0.2-0.1,0.3-0.3c0-0.6,0.1-1.3,0.2-1.9C-260.7,422-260.5,420.8-260.3,419.7z M-263,423.4c-0.1,0.2-0.2,0.3-0.4,0.4
			c-0.2,0.2-0.5,0.3-0.9,0.2c-0.3-0.1-0.4-0.4-0.4-0.7c-0.1-1,0.3-1.8,1-2.4c0.4-0.3,0.9-0.4,1.4-0.3
			C-262.4,421.5-262.4,422.5-263,423.4z M-248.8,419.6c-0.6-0.5-1.3-0.6-2.1-0.5c-2.5,0.3-3.5,2.9-3,4.6c0.3,1,1.2,1.6,2.8,1.6
			c1.1,0,2.1-0.6,2.8-1.9c0.4-0.7,0.5-1.4,0.4-2.1C-247.9,420.7-248.2,420.1-248.8,419.6z M-250.4,423.6c-0.2,0.2-0.4,0.4-0.8,0.4
			c-0.6,0.1-1-0.3-1.1-1c0-0.1,0-0.2,0-0.3c0-0.7,0.2-1.3,0.6-1.9c0.2-0.2,0.4-0.4,0.7-0.5c0.6-0.1,1.1,0.2,1.2,0.9
			C-249.7,422.2-249.9,423-250.4,423.6z M-253.8,419.7c-1.4,1.4-2.7,2.9-3.8,4.5c-0.7,1-1.4,2-2,3.1c-0.3,0.5-0.5,1.1-0.8,1.7
			c0,0.1-0.1,0.2-0.2,0.2c-0.1,0-0.3-0.1-0.3-0.2c-0.1-0.2-0.1-0.5-0.1-0.7c0.2-1.2,0.7-2.3,1.3-3.3c1.1-2.1,2.4-3.9,3.9-5.6
			c0.9-1,1.8-1.9,2.7-2.8c1.4-1.4,3-2.5,4.8-3.4c0.8-0.4,1.7-0.7,2.6-0.9c0.1,0,0.3-0.1,0.4-0.1c0,0,1.9-0.4,2.7,1
			c0,0,0.2,0.3,0.2,0.4c-0.1,0.1-0.3,0.3-0.4,0.3c-1.5,0.2-2.9,0.6-4.3,1.2c-0.8,0.3-1.6,0.7-2.3,1.1
			C-251.1,417.1-252.5,418.4-253.8,419.7z M-236.4,419.3c-1.1-0.3-2.1-0.1-3,0.6c-1.1,0.9-1.5,2.1-1.3,3.5c0.1,1,0.6,1.7,1.6,1.9
			c1,0.3,2,0.1,3-0.3c0.1,0,0.1-0.1,0.1-0.2c0-0.4-0.1-0.7-0.1-1.1c0,0-0.1,0-0.1,0c-0.1,0-0.1,0-0.2,0.1c-0.6,0.2-1.1,0.3-1.7,0.2
			c-0.6-0.1-1-0.5-1-1.1c0.4,0,0.8,0,1.1,0c0.6,0,1.2-0.1,1.7-0.4c0.7-0.4,1-0.9,1-1.7C-235.2,420.1-235.6,419.5-236.4,419.3z
			 M-237.1,421.5c-0.4,0.2-1.3,0.3-1.7,0.2c0.1-0.8,0.9-1.4,1.6-1.2c0.2,0.1,0.4,0.2,0.4,0.4C-236.8,421.1-236.9,421.3-237.1,421.5z
			 M-224.6,419.2c-0.1,0.6-0.2,1.1-0.3,1.6c0,0-0.1,0.1-0.1,0.1c-1.2,0.2-1.6,0.6-1.9,1.7c-0.2,0.8-0.3,1.7-0.5,2.5
			c0,0.1-0.1,0.2-0.1,0.2c-0.5,0-1.1,0-1.7,0c0.1-0.4,0.1-0.8,0.2-1.2c0.3-1.5,0.6-3,0.7-4.6c0-0.1,0.1-0.2,0.1-0.2
			c0.4,0,0.9,0,1.4,0c0,0.4-0.1,0.8-0.1,1.2C-226.3,419.7-225.7,419-224.6,419.2z M-230.6,419.3c-1.3-0.4-2.4,0-3.3,0.9
			c-0.8,0.9-1.1,2-1,3.2c0.1,0.9,0.6,1.6,1.6,1.9c1,0.3,2.1,0.1,3.1-0.3c0.1,0,0.1-0.1,0.1-0.2c0-0.4-0.1-0.7-0.1-1.1
			c-0.1,0-0.2,0.1-0.3,0.1c-0.6,0.2-1.1,0.3-1.7,0.2c-0.6-0.1-1-0.5-1-1.1c0.2,0,0.3,0,0.5,0c0.8,0,1.6-0.1,2.3-0.4
			c0.7-0.3,1.1-0.9,1-1.7C-229.4,420.1-229.8,419.5-230.6,419.3z M-231.3,421.4c-0.2,0.1-0.4,0.2-0.7,0.2c-0.3,0-0.7,0.1-1.1,0.1
			c0.1-0.8,0.9-1.5,1.6-1.3c0.2,0.1,0.4,0.2,0.4,0.4C-230.9,421.1-231,421.3-231.3,421.4z M-241.4,420.4c0.1,0.7-0.1,1.4-0.2,2.1
			c-0.2,0.9-0.3,1.7-0.5,2.5c0,0.1-0.1,0.2-0.2,0.2c-0.5,0-1,0-1.5,0c0,0,0,0-0.1,0c0.1-0.5,0.2-1,0.3-1.5c0.1-0.8,0.3-1.5,0.4-2.3
			c0-0.1,0-0.3,0-0.4c-0.1-0.4-0.4-0.7-0.8-0.5c-0.4,0.1-0.7,0.5-0.9,0.8c-0.3,0.5-0.4,1.1-0.5,1.7c-0.1,0.6-0.2,1.3-0.4,1.9
			c0,0.1-0.1,0.2-0.2,0.2c-0.5,0-1,0-1.6,0c0.4-2,0.7-4,1.1-6c0.5,0,1,0,1.5,0c0,0.3,0,0.6-0.1,0.9c0.2-0.2,0.3-0.3,0.5-0.4
			c0.6-0.5,1.2-0.7,2-0.6C-242,419.3-241.5,419.7-241.4,420.4z M-259.9,414c0-0.2,0-0.3-0.1-0.5c0-0.2,0.1-0.3,0.2-0.2
			c0.1,0.1,0.3,0.1,0.4,0.3c0.9,1,1.5,2.1,1.7,3.5c0,0.3,0,0.5,0.1,0.8c0,0.8-0.2,1.6-0.4,2.4c0,0.1-0.1,0.2-0.1,0.2
			c-0.1,0.2-0.3,0.2-0.4,0c-0.1-0.2-0.2-0.5-0.3-0.8c-0.2-0.8-0.4-1.7-0.5-2.5C-259.5,416.1-259.7,415-259.9,414z M-266.3,418.8
			c-0.1-0.8-0.8-1.5-1.7-1.7c-1.1-0.3-2.2-0.2-3.3,0c-0.1,0-0.2,0.1-0.2,0.3c-0.4,2.2-0.8,4.4-1.3,6.7c-0.1,0.4-0.1,0.8-0.2,1.2
			c0.6,0,1.1,0,1.6,0c0,0,0.1-0.1,0.1-0.2c0.2-0.9,0.3-1.7,0.5-2.6c0-0.2,0.1-0.2,0.3-0.2c0.7,0.1,1.5,0,2.2-0.2
			C-266.9,421.6-266,420.4-266.3,418.8z M-268.1,420c-0.3,0.6-0.8,0.9-1.4,0.9c-0.3,0-0.6,0-1,0c0.2-0.9,0.3-1.6,0.5-2.4
			c0-0.1,0.1-0.1,0.1-0.1c0.4-0.1,0.9-0.1,1.3,0.1C-268,418.6-267.8,419.3-268.1,420z"/>
	</g>
</g>
</svg>
