<?xml version="1.0" encoding="utf-8"?>
<!-- Generator: Adobe Illustrator 19.0.0, SVG Export Plug-In . SVG Version: 6.00 Build 0)  -->
<svg version="1.1" id="Layer_1" xmlns="http://www.w3.org/2000/svg" xmlns:xlink="http://www.w3.org/1999/xlink" x="0px" y="0px"
	 viewBox="-271.2 413.6 48.4 14.7" style="enable-background:new -271.2 413.6 48.4 14.7;" xml:space="preserve">
<style type="text/css">
	.st0{fill:#404041;}
</style>
<g>
	<g>
		<path class="st0" d="M-233.4,415.9c-1.2,0-2.2,0.4-2.9,0.5l-0.2,2.1c0.4-0.2,1.5-0.6,2.5-0.6c1,0,1.5,0.2,1.3,1.1
			c-2.8,0-4.8,0.7-5.2,2.8c-0.6,3.6,2.9,3.5,4.3,1.9l-0.2,0.9h2.5l1.1-5.7C-229.7,416.4-231.6,415.8-233.4,415.9z M-233.2,421.7
			c-0.1,0.8-0.7,1.1-1.3,1.1c-0.6,0-1.1-0.5-0.7-1.2c0.3-0.6,1.1-0.7,1.6-0.7c0.2,0,0.4,0,0.6,0
			C-233.1,421.2-233.2,421.5-233.2,421.7z"/>
		<polygon class="st0" points="-228,413.6 -230.1,424.6 -227.5,424.6 -225.4,413.6 -228,413.6 		"/>
		<path class="st0" d="M-239.8,413.6h-4.7l-2.1,10.9h2.7l0.7-3.6h1.9c1.9,0,3.5-1.3,3.9-3.6C-236.8,414.8-238.4,413.6-239.8,413.6z
			 M-239.9,417.4c-0.2,0.8-0.9,1.5-1.6,1.5h-1.3l0.6-3h1.4C-240.1,415.9-239.7,416.5-239.9,417.4z"/>
		<path class="st0" d="M-258.1,415.9c-1.2,0-2.1,0.4-2.8,0.5l-0.2,2.1c0.3-0.2,1.5-0.6,2.4-0.6c0.9,0,1.5,0.2,1.3,1.1
			c-2.8,0-4.7,0.7-5.1,2.8c-0.6,3.6,2.9,3.5,4.2,1.9l-0.2,0.9h2.5l1.1-5.7C-254.4,416.4-256.3,415.8-258.1,415.9z M-257.9,421.7
			c-0.1,0.8-0.7,1.1-1.3,1.1c-0.6,0-1-0.5-0.7-1.2c0.3-0.6,1.1-0.7,1.5-0.7c0.2,0,0.4,0,0.6,0C-257.8,421.2-257.9,421.5-257.9,421.7
			z"/>
		<polygon class="st0" points="-253.7,416 -251.2,416 -250.8,421.1 -248.3,416 -245.7,416 -251.7,428.2 -254.5,428.2 -252.7,424.6 
			-253.7,416 		"/>
		<path class="st0" d="M-264.4,413.6h-4.7l-2.1,10.9h2.8l0.7-3.6h2c1.9,0,3.5-1.3,3.9-3.6C-261.4,414.8-263,413.6-264.4,413.6z
			 M-264.5,417.4c-0.2,0.8-0.9,1.5-1.6,1.5h-1.3l0.6-3h1.4C-264.7,415.9-264.3,416.5-264.5,417.4z"/>
		<path class="st0" d="M-224.8,415v-1.3h-0.4v-0.2h1v0.2h-0.4v1.3H-224.8z"/>
		<path class="st0" d="M-224,415v-1.5h0.3l0.3,1c0,0.1,0,0.2,0.1,0.2c0-0.1,0-0.1,0.1-0.2l0.3-1h0.2v1.5h-0.2v-1.2l-0.4,1.2h-0.2
			l-0.4-1.2v1.2H-224z"/>
	</g>
</g>
</svg>
