<?xml version="1.0" encoding="utf-8"?>
<!-- Generator: Adobe Illustrator 19.0.0, SVG Export Plug-In . SVG Version: 6.00 Build 0)  -->
<svg version="1.1" id="Capa_1" xmlns="http://www.w3.org/2000/svg" xmlns:xlink="http://www.w3.org/1999/xlink" x="0px" y="0px"
	 viewBox="-279 411.6 35.8 18.7" style="enable-background:new -279 411.6 35.8 18.7;" xml:space="preserve">
<g>
	<g id="Layer_1_copy_10_">
		<path d="M-248,427.9c0-0.8-0.4-1.5-1.2-1.5c-0.8,0-1.3,0.6-1.3,1.5c0,1,0.6,1.4,1.4,1.4c0.4,0,0.8-0.1,1.1-0.3l-0.1-0.6
			c-0.3,0.2-0.6,0.3-0.9,0.3c-0.4,0-0.6-0.2-0.7-0.6h1.7C-248,428.1-248,428-248,427.9z M-249.7,427.6c0-0.4,0.2-0.6,0.4-0.6
			c0.3,0,0.4,0.2,0.4,0.6H-249.7z M-251.5,427.8l0.9,1.4l-0.9,0.1l-0.8-1.3v1.3h-0.9v-4l0.9-0.1v2.5l0.8-1.1h0.9L-251.5,427.8z
			 M-250.6,412.8l3-0.5v11.4h-3V412.8z M-243.3,423.7h-3v-10.9l3-0.5V423.7z M-243.2,428.4c0,0.6-0.4,0.9-1.2,0.9
			c-0.4,0-0.9-0.1-1.2-0.3l0.1-0.7c0.3,0.2,0.7,0.3,1.1,0.3c0.2,0,0.4-0.1,0.4-0.2c0-0.1-0.1-0.2-0.5-0.3c-0.7-0.2-1-0.4-1-0.9
			c0-0.5,0.4-0.9,1.1-0.9c0.4,0,0.7,0.1,1,0.2l-0.1,0.7c-0.3-0.2-0.7-0.3-0.9-0.3c-0.2,0-0.3,0.1-0.3,0.2c0,0.1,0.1,0.2,0.5,0.3
			C-243.5,427.7-243.2,427.9-243.2,428.4z M-257.7,423.7h-3V419c0-2.4,1.4-3.7,4.1-3.8c0,0,0.5,0,0.8,0v2.4
			c-1.7,0.1-1.9,0.7-1.9,2.2C-257.7,419.9-257.7,423.7-257.7,423.7z M-266.3,423.7h-3.1v-10.8l3.1-0.6v5.9c1.1-1.4,1.6-2.7,1.7-2.9
			h3.5c-0.1,0.3-0.7,2.2-2.1,4.1c0,0,1.6,2.8,2,4.3h-3.7c0,0-0.4-2-1.3-3.3C-266.3,420.4-266.3,423.7-266.3,423.7z M-245.8,426.4
			l0.1,0.9c-0.4,0-0.7,0.2-0.9,0.4v1.6h-0.9v-2.8h0.8l0.1,0.6C-246.5,426.7-246.3,426.5-245.8,426.4z M-254.9,413.1
			c0-0.8,0.7-1.5,1.5-1.5c0.8,0,1.5,0.7,1.5,1.5c0,0.8-0.7,1.5-1.5,1.5C-254.2,414.6-254.9,413.9-254.9,413.1z M-251.9,423.7h-3
			v-8.3h3C-251.9,415.4-251.9,423.7-251.9,423.7z M-255,426.4c-0.8,0-1.3,0.6-1.3,1.5s0.6,1.5,1.3,1.5c0.8,0,1.4-0.6,1.4-1.5
			C-253.6,427-254.2,426.4-255,426.4z M-255,428.7c-0.3,0-0.5-0.3-0.5-0.8c0-0.5,0.2-0.8,0.5-0.8s0.5,0.3,0.5,0.8
			C-254.5,428.3-254.7,428.7-255,428.7z M-265.6,427.9c0-0.8-0.4-1.5-1.2-1.5c-0.8,0-1.3,0.6-1.3,1.5c0,1,0.6,1.4,1.4,1.4
			c0.4,0,0.8-0.1,1.1-0.3l-0.1-0.6c-0.3,0.2-0.6,0.3-0.9,0.3c-0.4,0-0.6-0.2-0.7-0.6h1.7C-265.6,428.1-265.6,428-265.6,427.9z
			 M-267.3,427.6c0-0.4,0.2-0.6,0.4-0.6c0.3,0,0.4,0.2,0.4,0.6H-267.3z M-270.1,420.1c0,1.8-1.5,3.7-4.7,3.7c-1.5,0-2.8-0.1-4-0.5
			v-2.7c0.8,0.3,2,0.6,3.3,0.6c1.2,0,1.9-0.4,1.9-1.1c0-0.8-0.9-0.9-1.2-0.9c-3.8-0.3-4.2-2.5-4.2-3.5c0-1.7,1.2-3.6,4.5-3.6
			c1.9,0,3,0.3,3.9,0.6l0,0v2.5v0l0,0c-0.4-0.2-0.8-0.3-0.8-0.3c-0.8-0.2-1.8-0.5-2.7-0.5c-0.5,0-1.7,0-1.7,0.9
			c0,0.8,0.9,0.8,1.2,0.9C-271.7,416.7-270.1,418.1-270.1,420.1z M-263.5,426.5h0.8l-1,2.9c-0.3,0.7-0.6,1-1.2,1c-0.2,0-0.2,0-0.3,0
			l-0.1-0.7c0.1,0,0.2,0,0.3,0c0.2,0,0.4-0.1,0.5-0.3l0-0.1l-1-2.7l0.9-0.1l0.5,1.8L-263.5,426.5z M-272.9,426.4
			c-0.8,0-1.3,0.6-1.3,1.5s0.6,1.5,1.3,1.5c0.8,0,1.4-0.6,1.4-1.5C-271.6,427-272.2,426.4-272.9,426.4z M-272.9,428.7
			c-0.3,0-0.5-0.3-0.5-0.8c0-0.5,0.2-0.8,0.5-0.8c0.3,0,0.5,0.3,0.5,0.8S-272.6,428.7-272.9,428.7z M-274.7,427.3v2h-0.9v-1.8
			c0-0.2-0.1-0.3-0.3-0.3c-0.2,0-0.3,0.1-0.5,0.2v1.9h-0.9v-1.8c0-0.2-0.1-0.3-0.3-0.3c-0.2,0-0.3,0.1-0.5,0.2v1.9h-0.9v-2.8h0.8
			l0.1,0.4c0.3-0.3,0.5-0.4,0.9-0.4c0.4,0,0.6,0.2,0.7,0.4c0.3-0.3,0.5-0.4,0.9-0.4C-275,426.4-274.7,426.8-274.7,427.3z
			 M-268.6,427.3v2h-0.9v-1.8c0-0.2-0.1-0.3-0.3-0.3c-0.2,0-0.3,0.1-0.5,0.3v1.8h-0.9v-2.8h0.8l0.1,0.4c0.3-0.2,0.5-0.4,0.9-0.4
			C-268.9,426.4-268.6,426.8-268.6,427.3z M-260.7,426.4c-0.3,0-0.6,0.2-0.8,0.4v-1.6l-0.9,0.1v3.8c0.3,0.1,0.8,0.2,1.2,0.2
			c0.9,0,1.4-0.5,1.4-1.5C-259.7,426.9-260.1,426.4-260.7,426.4z M-261.1,428.6c-0.1,0-0.2,0-0.3-0.1v-1.1c0.1-0.2,0.3-0.3,0.5-0.3
			c0.2,0,0.4,0.2,0.4,0.7C-260.6,428.4-260.8,428.6-261.1,428.6z M-258,426.4c-0.8,0-1.3,0.6-1.3,1.5s0.6,1.5,1.3,1.5
			c0.8,0,1.4-0.6,1.4-1.5C-256.7,427-257.2,426.4-258,426.4z M-258,428.7c-0.3,0-0.5-0.3-0.5-0.8c0-0.5,0.2-0.8,0.5-0.8
			s0.5,0.3,0.5,0.8S-257.7,428.7-258,428.7z"/>
	</g>
</g>
</svg>
