<?xml version="1.0" encoding="utf-8"?>
<!-- Generator: Adobe Illustrator 19.0.0, SVG Export Plug-In . SVG Version: 6.00 Build 0)  -->
<svg version="1.1" id="Слой_1" xmlns="http://www.w3.org/2000/svg" xmlns:xlink="http://www.w3.org/1999/xlink" x="0px" y="0px"
	 viewBox="-221.8 375.4 112.1 107.3" style="enable-background:new -221.8 375.4 112.1 107.3;" xml:space="preserve">
<style type="text/css">
	.st0{fill:none;}
</style>
<path d="M-110,415.9c1.5,4.7-3.7,7.7-3.7,7.7l-26,18.9l10,30.6c0,0,2.4,5.5-1.6,8.4c-4,2.9-8.4-1.1-8.4-1.1l-26-18.9l-26,19
	c0,0-4.5,4-8.5,1.1s-1.6-8.4-1.6-8.4l10-30.6l-26.1-19c0,0-5.2-3-3.6-7.7c1.5-4.7,7.5-4.1,7.5-4.1h32.2l9.8-30.6
	c0,0,1.3-5.8,6.2-5.8s6.2,5.8,6.2,5.8l9.9,30.6h32.2C-117.5,411.8-111.5,411.2-110,415.9L-110,415.9z"/>
<rect id="_x3C_Slice_x3E__100_" x="-233" y="350.9" class="st0" width="129" height="141"/>
</svg>
