<?xml version="1.0" encoding="UTF-8"?><!DOCTYPE svg PUBLIC "-//W3C//DTD SVG 1.1//EN" "http://www.w3.org/Graphics/SVG/1.1/DTD/svg11.dtd"><svg xmlns="http://www.w3.org/2000/svg"><symbol id="icon-arrow-left" viewBox="-270 410.9 11 20">
    <style>
        .st0{fill:#121313}
    </style>
    <path id="Chevron_Right" class="st0" d="M-269.7 421.6l9 9c.4.4 1 .4 1.4 0 .4-.4.4-1 0-1.4l-8.3-8.3 8.3-8.3c.4-.4.4-1 0-1.4-.4-.4-1-.4-1.4 0l-9 9c-.4.4-.4 1 0 1.4z"/>
</symbol><symbol id="icon-arrow-right" viewBox="-270 410.9 11 20">
    <style>
        .st0{fill:#121313}
    </style>
    <path id="Chevron_Right" class="st0" d="M-259.3 420.2l-9-9c-.4-.4-1-.4-1.4 0-.4.4-.4 1 0 1.4l8.3 8.3-8.3 8.3c-.4.4-.4 1 0 1.4.4.4 1 .4 1.4 0l9-9c.4-.4.4-1 0-1.4z"/>
</symbol><symbol id="icon-cart" viewBox="0 0 90 90">
    <path d="M14.999 80c0 5.523 4.477 10 10.001 10s9.999-4.477 9.999-10S30.524 70 25 70s-10.001 4.477-10.001 10zm50 0c0 5.523 4.477 10 10.001 10s9.999-4.477 9.999-10S80.524 70 75 70s-10.001 4.477-10.001 10zM32.735 56.362L88.077 40.55C89.135 40.247 90 39.1 90 38V10.5H19.5V2c0-1.1-.899-2-2-2H2C.899 0 0 .9 0 2v8h9.718l9.839 45.284L20.5 60v7.5c0 1.1.899 2 2 2H88c1.101 0 2-.9 2-2V60H33.761c-5.748 0-5.865-2.253-1.026-3.638z"/>
</symbol><symbol id="icon-categories" viewBox="0 0 59.167 59.167">
    <path d="M46.663 59.167H2.497A2.337 2.337 0 0 1 .16 56.83V12.665a2.337 2.337 0 0 1 2.337-2.337h44.166A2.337 2.337 0 0 1 49 12.665V56.83a2.337 2.337 0 0 1-2.337 2.337zM4.834 54.492h39.491v-39.49H4.834v39.49z"/>
    <path d="M56.67 48.84h-4.745a2.337 2.337 0 0 1 0-4.674h2.408V4.675H14.841v2.6a2.337 2.337 0 1 1-4.674 0V2.337A2.337 2.337 0 0 1 12.504 0H56.67a2.337 2.337 0 0 1 2.337 2.337v44.166a2.337 2.337 0 0 1-2.337 2.337z"/>
</symbol><symbol id="icon-heart" viewBox="-15.1 225.1 436.1 390.7">
    <style>
        .st0{fill:#010101}
    </style>
    <path class="st0" d="M203 281.4c-9.1-35.3-55.2-56.3-90.9-56.3-70.2 0-127.2 54.5-127.2 127.2 0 136.3 129.6 172.6 199.9 254.4.6.9 1.4 1.6 2.2 2.5 8.9 8.8 23.3 8.8 32.2 0 .8-.8 1.4-1.5 2-2.5 70.4-81.9 199.9-117.6 199.9-254.4 0-72.7-57-127.2-127.2-127.2-35.7 0-81.8 21-90.9 56.3zm96.8 25.4c-8.5-1.5-15-9-15-17.9 0-10 8.2-18.4 18.2-18.4 14.4 0 32 10.3 46.7 24.8 15 14.9 26 34.8 26 47.9 0 10-8.2 18.2-18.2 18.2-8.9 0-16.4-6.4-17.9-15-4.6-18.3-20.2-35-39.8-39.6z"/>
</symbol><symbol id="icon-link" viewBox="0 0 457.03 457.03">
    <path d="M421.512 207.074l-85.795 85.767c-47.352 47.38-124.169 47.38-171.529 0-7.46-7.439-13.296-15.821-18.421-24.465l39.864-39.861c1.895-1.911 4.235-3.006 6.471-4.296 2.756 9.416 7.567 18.33 14.972 25.736 23.648 23.667 62.128 23.634 85.762 0l85.768-85.765c23.666-23.664 23.666-62.135 0-85.781-23.635-23.646-62.105-23.646-85.768 0l-30.499 30.532c-24.75-9.637-51.415-12.228-77.373-8.424l64.991-64.989c47.38-47.371 124.177-47.371 171.557 0 47.357 47.369 47.357 124.178 0 171.546zm-226.804 141.03l-30.521 30.532c-23.646 23.634-62.128 23.634-85.778 0-23.648-23.667-23.648-62.138 0-85.795l85.778-85.767c23.665-23.662 62.121-23.662 85.767 0 7.388 7.39 12.204 16.302 14.986 25.706 2.249-1.307 4.56-2.369 6.454-4.266l39.861-39.845c-5.092-8.678-10.958-17.03-18.421-24.477-47.348-47.371-124.172-47.371-171.543 0L35.526 249.96c-47.366 47.385-47.366 124.172 0 171.553 47.371 47.356 124.177 47.356 171.547 0l65.008-65.003c-25.972 3.826-52.644 1.213-77.373-8.406z"/>
</symbol><symbol id="icon-mastercard" viewBox="-269 402.3 56.5 36.6">
    <path d="M-253.9 418.2c-1.1 0-1.9.3-1.9.3l-.2 1.3s.7-.3 1.7-.3c.6 0 1 .1 1 .5 0 .3-.1.4-.1.4h-.7c-1.3 0-2.7.6-2.7 2.3 0 1.4.9 1.7 1.5 1.7 1.1 0 1.6-.7 1.6-.7l-.1.6h1.4l.6-4.3c0-1.7-1.6-1.8-2.1-1.8zm-.8 5c-.5 0-.6-.4-.6-.6 0-.4.2-.9 1.4-.9h.3c0 .2-.2 1.5-1.1 1.5zm4.8-3c0 .8 1.8.4 1.8 2.3 0 2.1-2 2-2.3 2-1.3 0-1.7-.2-1.7-.2l.2-1.4s.6.2 1.4.2c.4 0 1 0 1-.5 0-.7-1.9-.6-1.9-2.3 0-1.6 1.2-2 2.3-2 .9 0 1.4.1 1.4.1l-.2 1.4s-.8-.1-1.1-.1c-.6-.1-.9.1-.9.5zm3.7 2.3c0 .2 0 .5.6.5h.4l-.2 1.3c-.2 0-.6.2-1.2.2-.7 0-1.2-.4-1.2-1.3 0-.6.9-5.7.9-5.7h1.5l-.2.9h.8l-.2 1.5h-.8l-.4 2.6zm5.9-.6s.2-1 .2-1.4c0-1-.5-2.3-2.2-2.3-1.6 0-2.7 1.7-2.7 3.6 0 2.2 1.4 2.7 2.7 2.7 1.1 0 1.6-.3 1.6-.3l.3-1.5s-.9.4-1.6.4c-1.7 0-1.4-1.2-1.4-1.2h3.1zm-2-2.3c.9 0 .7 1 .7 1.1h-1.7c0-.2.2-1.1 1-1.1zm-14-2.6l-1.2 7.3h-1.6l.9-5.5-2 5.5h-1.1l-.1-5.5-.9 5.5h-1.5l1.2-7.3h2.3l.1 4.5 1.5-4.5h2.4zm19.6-1h-8c.1-.1.4-.8.8-1.6h6.6c.2.6.4 1.1.6 1.6zm-1.5-3.1h-4.9c.3-.5.7-1.1 1-1.6h2.8c.4.6.8 1.1 1.1 1.6zm-2.6 18.5c-.5-.5-1-1-1.5-1.6h3c-.4.6-.9 1.1-1.5 1.6.1 0 .1 0 0 0 .1 0 0 0 0 0zm2.6-3.1h-5.1c-.3-.5-.6-1-.9-1.6h6.8c-.2.6-.5 1.1-.8 1.6zm1.9-10c-.2.4-.4.8-.6 1.8-1.1-.4-1.2 1.7-1.6 4.3h-1.6l1-6h1.4l-.1.9s.5-.9 1.2-.9c.2-.1.3-.1.3-.1zm2.8 4.7c.5 0 1.3-.4 1.3-.4l-.3 1.7s-.8.2-1.3.2c-1.8 0-2.8-1.3-2.8-3.2 0-2.9 1.7-4.4 3.5-4.4.8 0 1.7.4 1.7.4l-.3 1.6s-.6-.4-1.4-.4c-1 0-2 1-2 2.8.1.8.5 1.7 1.6 1.7zm15.1.5c-.1 0-.1.1-.2.2 0 .1-.1.2-.1.2s0 .2.1.2c0 .1.1.1.2.2.1 0 .2.1.2.1.1 0 .2 0 .2-.1.1 0 .1-.1.2-.2 0-.1.1-.2.1-.2 0-.1 0-.2-.1-.2 0-.1-.1-.1-.2-.2-.1 0-.1-.1-.2-.1s-.2.1-.2.1zm.5.2c0 .1.1.1.1.2s0 .1-.1.2c0 .1-.1.1-.1.1-.1 0-.1.1-.2.1s-.1 0-.2-.1c-.1 0-.1-.1-.1-.1 0-.1-.1-.1-.1-.2s0-.1.1-.2c0-.1.1-.1.1-.1h.4c.1 0 .1 0 .1.1zm-6.2-1.8c0 1.3.6 2.5 1.9 2.5.9 0 1.4-.6 1.4-.6l-.1.6h1.5l1.2-7.3h-1.5l-.3 2.1s-.6-.8-1.5-.8c-1.4-.1-2.6 1.6-2.6 3.5zm3.7-.9c0 .8-.4 1.9-1.2 1.9-.6 0-.8-.5-.8-1.2 0-1.2.5-2 1.2-2 .5 0 .8.4.8 1.3zm2.5 7.8c0-.1 0-.1 0 0 0-.1 0-.1 0 0 .1-.1.1-.1.1-.2v-.1h-.1H-218.2v.5h.1v-.2c.1-.1.1-.1.2 0-.1 0 0 .1 0 .1v.1h.1l-.1-.1v-.1zm-.1-.1h-.1v-.2h.2c0 .1 0 .1-.1.2.1 0 0 0 0 0zm4-26.4h-53.6c-.8 0-1.5.7-1.5 1.5v33.7c0 .8.6 1.5 1.5 1.5h53.6c.8 0 1.5-.7 1.5-1.5v-33.7c0-.8-.7-1.5-1.5-1.5zm-3.6 26.6c0 .1-.1.1-.2.2-.1 0-.2.1-.2.1-.1 0-.2 0-.2-.1-.1 0-.1-.1-.2-.2 0-.1-.1-.2-.1-.2s0-.2.1-.2c0-.1.1-.1.2-.2.1 0 .2-.1.2-.1.1 0 .2 0 .2.1.1 0 .1.1.2.2 0 .1.1.2.1.2 0 .1 0 .2-.1.2zm1.1-8.2c0 8-6.5 14.5-14.5 14.5-3.7 0-7.2-1.4-9.7-3.7-2.6 2.3-6 3.7-9.7 3.7-8 0-14.5-6.5-14.5-14.5s6.4-14.4 14.4-14.5h.1c3.7 0 7.1 1.4 9.7 3.7 2.6-2.3 6-3.7 9.7-3.7 8-.1 14.5 6.4 14.5 14.5 0-.1 0-.1 0 0zm-1.9 3v.5h.1v-.2h.1s0 .1.1.1v.1h.1l-.1-.1-.1-.1h.1v-.1-.1h-.1-.2v-.1zm.3.1c0 .1-.1.1-.1.1h-.1v-.2h.1l.1.1c0-.1 0-.1 0 0zm-10.8-5.6c-1.1 0-1.9.3-1.9.3l-.2 1.3s.7-.3 1.7-.3c.6 0 1 .1 1 .5 0 .3-.1.4-.1.4h-.7c-1.3 0-2.7.6-2.7 2.3 0 1.4.9 1.7 1.5 1.7 1.1 0 1.6-.7 1.6-.7l-.1.6h1.4l.6-4.3c0-1.7-1.6-1.8-2.1-1.8zm-.8 5c-.5 0-.6-.4-.6-.6 0-.4.2-.9 1.4-.9h.3c0 .2-.2 1.5-1.1 1.5zm5.7-3.1c-1.1-.4-1.2 1.7-1.6 4.3h-1.6l1-6h1.4l-.1.9s.5-.9 1.2-.9h.3c-.2.3-.4.7-.6 1.7z"/>
</symbol><symbol id="icon-payoneer" viewBox="-273 412.1 48.4 17.1">
    <path d="M-260.3 419.7c0-.2 0-.3-.2-.3-.5-.1-1-.2-1.5-.2-1-.1-1.9.1-2.7.7-1.3.9-1.8 2.2-1.8 3.7 0 .7.3 1.4 1 1.7.7.3 1.4.2 2-.3.3-.2.5-.5.8-.8 0 .3 0 .6-.1.9 0 .2 0 .3.2.2h1.1c.2 0 .2-.1.3-.3 0-.6.1-1.3.2-1.9.3-1.1.5-2.3.7-3.4zm-2.7 3.7c-.1.2-.2.3-.4.4-.2.2-.5.3-.9.2-.3-.1-.4-.4-.4-.7-.1-1 .3-1.8 1-2.4.4-.3.9-.4 1.4-.3-.1.9-.1 1.9-.7 2.8zm14.2-3.8c-.6-.5-1.3-.6-2.1-.5-2.5.3-3.5 2.9-3 4.6.3 1 1.2 1.6 2.8 1.6 1.1 0 2.1-.6 2.8-1.9.4-.7.5-1.4.4-2.1 0-.6-.3-1.2-.9-1.7zm-1.6 4c-.2.2-.4.4-.8.4-.6.1-1-.3-1.1-1v-.3c0-.7.2-1.3.6-1.9.2-.2.4-.4.7-.5.6-.1 1.1.2 1.2.9.1 1-.1 1.8-.6 2.4zm-3.4-3.9c-1.4 1.4-2.7 2.9-3.8 4.5-.7 1-1.4 2-2 3.1-.3.5-.5 1.1-.8 1.7 0 .1-.1.2-.2.2s-.3-.1-.3-.2c-.1-.2-.1-.5-.1-.7.2-1.2.7-2.3 1.3-3.3 1.1-2.1 2.4-3.9 3.9-5.6.9-1 1.8-1.9 2.7-2.8 1.4-1.4 3-2.5 4.8-3.4.8-.4 1.7-.7 2.6-.9.1 0 .3-.1.4-.1 0 0 1.9-.4 2.7 1 0 0 .2.3.2.4-.1.1-.3.3-.4.3-1.5.2-2.9.6-4.3 1.2-.8.3-1.6.7-2.3 1.1-1.7.9-3.1 2.2-4.4 3.5zm17.4-.4c-1.1-.3-2.1-.1-3 .6-1.1.9-1.5 2.1-1.3 3.5.1 1 .6 1.7 1.6 1.9 1 .3 2 .1 3-.3.1 0 .1-.1.1-.2 0-.4-.1-.7-.1-1.1h-.1c-.1 0-.1 0-.2.1-.6.2-1.1.3-1.7.2-.6-.1-1-.5-1-1.1h1.1c.6 0 1.2-.1 1.7-.4.7-.4 1-.9 1-1.7.1-.7-.3-1.3-1.1-1.5zm-.7 2.2c-.4.2-1.3.3-1.7.2.1-.8.9-1.4 1.6-1.2.2.1.4.2.4.4s-.1.4-.3.6zm12.5-2.3c-.1.6-.2 1.1-.3 1.6l-.1.1c-1.2.2-1.6.6-1.9 1.7-.2.8-.3 1.7-.5 2.5 0 .1-.1.2-.1.2h-1.7c.1-.4.1-.8.2-1.2.3-1.5.6-3 .7-4.6 0-.1.1-.2.1-.2h1.4c0 .4-.1.8-.1 1.2.6-.8 1.2-1.5 2.3-1.3zm-6 .1c-1.3-.4-2.4 0-3.3.9-.8.9-1.1 2-1 3.2.1.9.6 1.6 1.6 1.9 1 .3 2.1.1 3.1-.3.1 0 .1-.1.1-.2 0-.4-.1-.7-.1-1.1-.1 0-.2.1-.3.1-.6.2-1.1.3-1.7.2-.6-.1-1-.5-1-1.1h.5c.8 0 1.6-.1 2.3-.4.7-.3 1.1-.9 1-1.7 0-.7-.4-1.3-1.2-1.5zm-.7 2.1c-.2.1-.4.2-.7.2-.3 0-.7.1-1.1.1.1-.8.9-1.5 1.6-1.3.2.1.4.2.4.4.2.3.1.5-.2.6zm-10.1-1c.1.7-.1 1.4-.2 2.1-.2.9-.3 1.7-.5 2.5 0 .1-.1.2-.2.2h-1.5-.1l.3-1.5c.1-.8.3-1.5.4-2.3v-.4c-.1-.4-.4-.7-.8-.5-.4.1-.7.5-.9.8-.3.5-.4 1.1-.5 1.7-.1.6-.2 1.3-.4 1.9 0 .1-.1.2-.2.2h-1.6c.4-2 .7-4 1.1-6h1.5c0 .3 0 .6-.1.9.2-.2.3-.3.5-.4.6-.5 1.2-.7 2-.6.6.3 1.1.7 1.2 1.4zm-18.5-6.4c0-.2 0-.3-.1-.5 0-.2.1-.3.2-.2.1.1.3.1.4.3.9 1 1.5 2.1 1.7 3.5 0 .3 0 .5.1.8 0 .8-.2 1.6-.4 2.4 0 .1-.1.2-.1.2-.1.2-.3.2-.4 0-.1-.2-.2-.5-.3-.8-.2-.8-.4-1.7-.5-2.5-.2-1.1-.4-2.2-.6-3.2zm-6.4 4.8c-.1-.8-.8-1.5-1.7-1.7-1.1-.3-2.2-.2-3.3 0-.1 0-.2.1-.2.3-.4 2.2-.8 4.4-1.3 6.7-.1.4-.1.8-.2 1.2h1.6s.1-.1.1-.2c.2-.9.3-1.7.5-2.6 0-.2.1-.2.3-.2.7.1 1.5 0 2.2-.2 1.4-.5 2.3-1.7 2-3.3zm-1.8 1.2c-.3.6-.8.9-1.4.9h-1c.2-.9.3-1.6.5-2.4 0-.1.1-.1.1-.1.4-.1.9-.1 1.3.1.6.1.8.8.5 1.5z"/>
</symbol><symbol id="icon-paypal" viewBox="-271.2 413.6 48.4 14.7">
    <style>
        .st0{fill:#404041}
    </style>
    <path class="st0" d="M-233.4 415.9c-1.2 0-2.2.4-2.9.5l-.2 2.1c.4-.2 1.5-.6 2.5-.6s1.5.2 1.3 1.1c-2.8 0-4.8.7-5.2 2.8-.6 3.6 2.9 3.5 4.3 1.9l-.2.9h2.5l1.1-5.7c.5-2.5-1.4-3.1-3.2-3zm.2 5.8c-.1.8-.7 1.1-1.3 1.1-.6 0-1.1-.5-.7-1.2.3-.6 1.1-.7 1.6-.7h.6c-.1.3-.2.6-.2.8z"/>
    <path class="st0" d="M-228 413.6l-2.1 11h2.6l2.1-11h-2.6z"/>
    <path class="st0" d="M-239.8 413.6h-4.7l-2.1 10.9h2.7l.7-3.6h1.9c1.9 0 3.5-1.3 3.9-3.6.6-2.5-1-3.7-2.4-3.7zm-.1 3.8c-.2.8-.9 1.5-1.6 1.5h-1.3l.6-3h1.4c.7 0 1.1.6.9 1.5z"/>
    <path class="st0" d="M-258.1 415.9c-1.2 0-2.1.4-2.8.5l-.2 2.1c.3-.2 1.5-.6 2.4-.6.9 0 1.5.2 1.3 1.1-2.8 0-4.7.7-5.1 2.8-.6 3.6 2.9 3.5 4.2 1.9l-.2.9h2.5l1.1-5.7c.5-2.5-1.4-3.1-3.2-3zm.2 5.8c-.1.8-.7 1.1-1.3 1.1-.6 0-1-.5-.7-1.2.3-.6 1.1-.7 1.5-.7h.6c0 .3-.1.6-.1.8z"/>
    <path class="st0" d="M-253.7 416h2.5l.4 5.1 2.5-5.1h2.6l-6 12.2h-2.8l1.8-3.6-1-8.6z"/>
    <path class="st0" d="M-264.4 413.6h-4.7l-2.1 10.9h2.8l.7-3.6h2c1.9 0 3.5-1.3 3.9-3.6.4-2.5-1.2-3.7-2.6-3.7zm-.1 3.8c-.2.8-.9 1.5-1.6 1.5h-1.3l.6-3h1.4c.7 0 1.1.6.9 1.5z"/>
    <path class="st0" d="M-224.8 415v-1.3h-.4v-.2h1v.2h-.4v1.3h-.2z"/>
    <path class="st0" d="M-224 415v-1.5h.3l.3 1c0 .1 0 .2.1.2 0-.1 0-.1.1-.2l.3-1h.2v1.5h-.2v-1.2l-.4 1.2h-.2l-.4-1.2v1.2h-.1z"/>
</symbol><symbol id="icon-search" viewBox="0 0 250.313 250.313">
    <path d="M244.186 214.604l-54.379-54.378c-.289-.289-.628-.491-.93-.76 10.7-16.231 16.945-35.66 16.945-56.554C205.822 46.075 159.747 0 102.911 0S0 46.075 0 102.911c0 56.835 46.074 102.911 102.91 102.911 20.895 0 40.323-6.245 56.554-16.945.269.301.47.64.759.929l54.38 54.38c8.169 8.168 21.413 8.168 29.583 0 8.168-8.169 8.168-21.413 0-29.582zm-141.275-44.458c-37.134 0-67.236-30.102-67.236-67.235 0-37.134 30.103-67.236 67.236-67.236 37.132 0 67.235 30.103 67.235 67.236s-30.103 67.235-67.235 67.235z" fill-rule="evenodd" clip-rule="evenodd"/>
</symbol><symbol id="icon-skrill" viewBox="-279 411.6 35.8 18.7">
    <path d="M-248 427.9c0-.8-.4-1.5-1.2-1.5-.8 0-1.3.6-1.3 1.5 0 1 .6 1.4 1.4 1.4.4 0 .8-.1 1.1-.3l-.1-.6c-.3.2-.6.3-.9.3-.4 0-.6-.2-.7-.6h1.7v-.2zm-1.7-.3c0-.4.2-.6.4-.6.3 0 .4.2.4.6h-.8zm-1.8.2l.9 1.4-.9.1-.8-1.3v1.3h-.9v-4l.9-.1v2.5l.8-1.1h.9l-.9 1.2zm.9-15l3-.5v11.4h-3v-10.9zm7.3 10.9h-3v-10.9l3-.5v11.4zm.1 4.7c0 .6-.4.9-1.2.9-.4 0-.9-.1-1.2-.3l.1-.7c.3.2.7.3 1.1.3.2 0 .4-.1.4-.2s-.1-.2-.5-.3c-.7-.2-1-.4-1-.9s.4-.9 1.1-.9c.4 0 .7.1 1 .2l-.1.7c-.3-.2-.7-.3-.9-.3-.2 0-.3.1-.3.2s.1.2.5.3c.7.3 1 .5 1 1zm-14.5-4.7h-3V419c0-2.4 1.4-3.7 4.1-3.8h.8v2.4c-1.7.1-1.9.7-1.9 2.2v3.9zm-8.6 0h-3.1v-10.8l3.1-.6v5.9c1.1-1.4 1.6-2.7 1.7-2.9h3.5c-.1.3-.7 2.2-2.1 4.1 0 0 1.6 2.8 2 4.3h-3.7s-.4-2-1.3-3.3c-.1 0-.1 3.3-.1 3.3zm20.5 2.7l.1.9c-.4 0-.7.2-.9.4v1.6h-.9v-2.8h.8l.1.6c.1-.4.3-.6.8-.7zm-9.1-13.3c0-.8.7-1.5 1.5-1.5s1.5.7 1.5 1.5-.7 1.5-1.5 1.5-1.5-.7-1.5-1.5zm3 10.6h-3v-8.3h3v8.3zm-3.1 2.7c-.8 0-1.3.6-1.3 1.5s.6 1.5 1.3 1.5c.8 0 1.4-.6 1.4-1.5s-.6-1.5-1.4-1.5zm0 2.3c-.3 0-.5-.3-.5-.8s.2-.8.5-.8.5.3.5.8c0 .4-.2.8-.5.8zm-10.6-.8c0-.8-.4-1.5-1.2-1.5-.8 0-1.3.6-1.3 1.5 0 1 .6 1.4 1.4 1.4.4 0 .8-.1 1.1-.3l-.1-.6c-.3.2-.6.3-.9.3-.4 0-.6-.2-.7-.6h1.7v-.2zm-1.7-.3c0-.4.2-.6.4-.6.3 0 .4.2.4.6h-.8zm-2.8-7.5c0 1.8-1.5 3.7-4.7 3.7-1.5 0-2.8-.1-4-.5v-2.7c.8.3 2 .6 3.3.6 1.2 0 1.9-.4 1.9-1.1 0-.8-.9-.9-1.2-.9-3.8-.3-4.2-2.5-4.2-3.5 0-1.7 1.2-3.6 4.5-3.6 1.9 0 3 .3 3.9.6v2.5c-.4-.2-.8-.3-.8-.3-.8-.2-1.8-.5-2.7-.5-.5 0-1.7 0-1.7.9 0 .8.9.8 1.2.9 2.9.5 4.5 1.9 4.5 3.9zm6.6 6.4h.8l-1 2.9c-.3.7-.6 1-1.2 1h-.3l-.1-.7h.3c.2 0 .4-.1.5-.3v-.1l-1-2.7.9-.1.5 1.8.6-1.8zm-9.4-.1c-.8 0-1.3.6-1.3 1.5s.6 1.5 1.3 1.5c.8 0 1.4-.6 1.4-1.5-.1-.9-.7-1.5-1.4-1.5zm0 2.3c-.3 0-.5-.3-.5-.8s.2-.8.5-.8.5.3.5.8-.2.8-.5.8zm-1.8-1.4v2h-.9v-1.8c0-.2-.1-.3-.3-.3-.2 0-.3.1-.5.2v1.9h-.9v-1.8c0-.2-.1-.3-.3-.3-.2 0-.3.1-.5.2v1.9h-.9v-2.8h.8l.1.4c.3-.3.5-.4.9-.4s.6.2.7.4c.3-.3.5-.4.9-.4.6-.1.9.3.9.8zm6.1 0v2h-.9v-1.8c0-.2-.1-.3-.3-.3-.2 0-.3.1-.5.3v1.8h-.9v-2.8h.8l.1.4c.3-.2.5-.4.9-.4.5-.1.8.3.8.8zm7.9-.9c-.3 0-.6.2-.8.4v-1.6l-.9.1v3.8c.3.1.8.2 1.2.2.9 0 1.4-.5 1.4-1.5.1-.9-.3-1.4-.9-1.4zm-.4 2.2c-.1 0-.2 0-.3-.1v-1.1c.1-.2.3-.3.5-.3s.4.2.4.7c-.1.6-.3.8-.6.8zm3.1-2.2c-.8 0-1.3.6-1.3 1.5s.6 1.5 1.3 1.5c.8 0 1.4-.6 1.4-1.5-.1-.9-.6-1.5-1.4-1.5zm0 2.3c-.3 0-.5-.3-.5-.8s.2-.8.5-.8.5.3.5.8-.2.8-.5.8z"/>
</symbol><symbol id="icon-star" viewBox="-221.8 375.4 112.1 107.3">
    <style>
        .st0{fill:none}
    </style>
    <path d="M-110 415.9c1.5 4.7-3.7 7.7-3.7 7.7l-26 18.9 10 30.6s2.4 5.5-1.6 8.4c-4 2.9-8.4-1.1-8.4-1.1l-26-18.9-26 19s-4.5 4-8.5 1.1-1.6-8.4-1.6-8.4l10-30.6-26.1-19s-5.2-3-3.6-7.7c1.5-4.7 7.5-4.1 7.5-4.1h32.2l9.8-30.6s1.3-5.8 6.2-5.8 6.2 5.8 6.2 5.8l9.9 30.6h32.2s6-.6 7.5 4.1z"/>
    <path id="_x3C_Slice_x3E__100_" class="st0" d="M-233 350.9h129v141h-129z"/>
</symbol><symbol id="icon-user" viewBox="0 0 1792 1792">
    <path d="M1600 1405q0 120-73 189.5t-194 69.5H459q-121 0-194-69.5T192 1405q0-53 3.5-103.5t14-109T236 1084t43-97.5 62-81 85.5-53.5T538 832q9 0 42 21.5t74.5 48 108 48T896 971t133.5-21.5 108-48 74.5-48 42-21.5q61 0 111.5 20t85.5 53.5 62 81 43 97.5 26.5 108.5 14 109 3.5 103.5zm-320-893q0 159-112.5 271.5T896 896 624.5 783.5 512 512t112.5-271.5T896 128t271.5 112.5T1280 512z"/>
</symbol><symbol id="icon-visa" viewBox="-271.3 413.1 48.6 15.7">
    <style>
        .st0{fill:#404041}
    </style>
    <path class="st0" d="M-254.8 428.5l2.5-15h4l-2.5 15z"/>
    <path class="st0" d="M-236.2 413.9c-.8-.3-2.1-.6-3.6-.6-4 0-6.8 2-6.8 4.9 0 2.2 2 3.4 3.5 4.1 1.6.7 2.1 1.2 2.1 1.9 0 1-1.2 1.5-2.4 1.5-1.6 0-2.5-.2-3.8-.8l-.5-.2-.5 3.3c.9.4 2.7.8 4.5.8 4.2 0 6.9-2 7-5.1 0-1.7-1.1-3-3.4-4.1-1.4-.7-2.2-1.1-2.2-1.8 0-.6.7-1.3 2.3-1.3 1.3 0 2.3.3 3 .6l.4.2.4-3.4z"/>
    <path class="st0" d="M-225.9 413.5h-3.1c-1 0-1.7.3-2.1 1.2l-5.9 13.8h4.2s.7-1.9.9-2.3h5.1c.1.5.5 2.3.5 2.3h3.7l-3.3-15m-5 9.7c.3-.8 1.6-4.2 1.6-4.2s.3-.9.5-1.4l.3 1.3s.8 3.6.9 4.3h-3.3z"/>
    <path class="st0" d="M-258.2 413.5l-3.9 10.2-.4-2.1c-.9-2.5-2.8-4.6-5.5-6.2l3.6 13h4.2l6.3-15h-4.3z"/>
    <path class="st0" d="M-264.8 413.1h-6.5v.3c5 1.2 8.4 4.2 9.7 7.8l-1.4-6.9c-.2-.9-.9-1.2-1.8-1.2z"/>
</symbol></svg>